<svg width="20" height="20" viewBox="0 0 20 20" fill="none" xmlns="http://www.w3.org/2000/svg">
<path d="M10.0177 2.42499C7.25932 2.42499 5.01766 4.66665 5.01766 7.42499V9.83332C5.01766 10.3417 4.80099 11.1167 4.54266 11.55L3.58432 13.1417C2.99266 14.125 3.40099 15.2167 4.48432 15.5833C8.07599 16.7833 11.951 16.7833 15.5427 15.5833C16.551 15.25 16.9927 14.0583 16.4427 13.1417L15.4843 11.55C15.2343 11.1167 15.0177 10.3417 15.0177 9.83332V7.42499C15.0177 4.67499 12.7677 2.42499 10.0177 2.42499Z" stroke="#65717C" stroke-width="1.5" stroke-miterlimit="10" stroke-linecap="round"/>
<path d="M11.5593 2.66667C11.301 2.59167 11.0343 2.53334 10.7593 2.5C9.95932 2.4 9.19265 2.45834 8.47598 2.66667C8.71765 2.05 9.31765 1.61667 10.0176 1.61667C10.7176 1.61667 11.3176 2.05 11.5593 2.66667Z" stroke="#65717C" stroke-width="1.5" stroke-miterlimit="10" stroke-linecap="round" stroke-linejoin="round"/>
<path d="M12.5176 15.8833C12.5176 17.2583 11.3926 18.3833 10.0176 18.3833C9.33431 18.3833 8.70097 18.1 8.25097 17.65C7.80097 17.2 7.51764 16.5667 7.51764 15.8833" stroke="#65717C" stroke-width="1.5" stroke-miterlimit="10"/>
</svg>
